<svg width="50mm" height="50mm" viewBox="0 0 50 50" xmlns="http://www.w3.org/2000/svg">
  <g fill="none" stroke="black" stroke-width="0.1">
    <rect x="0.5" y="0.5" width="9" height="4" />
    <rect x="10.5" y="0.5" width="9" height="4" />
    <rect x="20.5" y="0.5" width="9" height="4" />
    <rect x="30.5" y="0.5" width="9" height="4" />
    <rect x="40.5" y="0.5" width="9" height="4" />
    <rect x="-4.5" y="5.5" width="9" height="4" />
    <rect x="5.5" y="5.5" width="9" height="4" />
    <rect x="15.5" y="5.5" width="9" height="4" />
    <rect x="25.5" y="5.5" width="9" height="4" />
    <rect x="35.5" y="5.5" width="9" height="4" />
    <rect x="45.5" y="5.5" width="9" height="4" />
    <rect x="0.5" y="10.5" width="9" height="4" />
    <rect x="10.5" y="10.5" width="9" height="4" />
    <rect x="20.5" y="10.5" width="9" height="4" />
    <rect x="30.5" y="10.5" width="9" height="4" />
    <rect x="40.5" y="10.5" width="9" height="4" />
    <rect x="-4.5" y="15.5" width="9" height="4" />
    <rect x="5.5" y="15.5" width="9" height="4" />
    <rect x="15.5" y="15.5" width="9" height="4" />
    <rect x="25.5" y="15.5" width="9" height="4" />
    <rect x="35.5" y="15.5" width="9" height="4" />
    <rect x="45.5" y="15.5" width="9" height="4" />
    <rect x="0.5" y="20.5" width="9" height="4" />
    <rect x="10.5" y="20.5" width="9" height="4" />
    <rect x="20.5" y="20.5" width="9" height="4" />
    <rect x="30.5" y="20.5" width="9" height="4" />
    <rect x="40.5" y="20.5" width="9" height="4" />
    <rect x="-4.5" y="25.5" width="9" height="4" />
    <rect x="5.5" y="25.5" width="9" height="4" />
    <rect x="15.5" y="25.5" width="9" height="4" />
    <rect x="25.5" y="25.5" width="9" height="4" />
    <rect x="35.5" y="25.5" width="9" height="4" />
    <rect x="45.5" y="25.5" width="9" height="4" />
    <rect x="0.5" y="30.5" width="9" height="4" />
    <rect x="10.5" y="30.5" width="9" height="4" />
    <rect x="20.5" y="30.5" width="9" height="4" />
    <rect x="30.5" y="30.5" width="9" height="4" />
    <rect x="40.5" y="30.5" width="9" height="4" />
    <rect x="-4.5" y="35.5" width="9" height="4" />
    <rect x="5.5" y="35.5" width="9" height="4" />
    <rect x="15.5" y="35.5" width="9" height="4" />
    <rect x="25.5" y="35.5" width="9" height="4" />
    <rect x="35.5" y="35.5" width="9" height="4" />
    <rect x="45.5" y="35.5" width="9" height="4" />
    <rect x="0.5" y="40.5" width="9" height="4" />
    <rect x="10.5" y="40.5" width="9" height="4" />
    <rect x="20.5" y="40.5" width="9" height="4" />
    <rect x="30.5" y="40.5" width="9" height="4" />
    <rect x="40.5" y="40.5" width="9" height="4" />
    <rect x="-4.5" y="45.5" width="9" height="4" />
    <rect x="5.5" y="45.5" width="9" height="4" />
    <rect x="15.5" y="45.5" width="9" height="4" />
    <rect x="25.5" y="45.5" width="9" height="4" />
    <rect x="35.5" y="45.5" width="9" height="4" />
    <rect x="45.5" y="45.5" width="9" height="4" />
  </g>
</svg>